HIERARCHY
ROOT Hips
{
	OFFSET 54.117699 -11.562515 95.698303
	CHANNELS 6 Xposition Yposition Zposition Xrotation Yrotation Zrotation
	JOINT spine
	{
		OFFSET 0.000000 -0.458069 7.965683
		CHANNELS 3 Xrotation Yrotation Zrotation
		JOINT spine1
		{
			OFFSET 0.000000 -0.000001 10.243103
			CHANNELS 3 Xrotation Yrotation Zrotation
			JOINT spine2
			{
				OFFSET 0.000000 -0.000002 9.814751
				CHANNELS 3 Xrotation Yrotation Zrotation
				JOINT Neck
				{
					OFFSET 0.000000 -1.201384 25.198601
					CHANNELS 3 Xrotation Yrotation Zrotation
					JOINT Head
					{
						OFFSET 0.000000 -0.000002 7.613144
						CHANNELS 3 Xrotation Yrotation Zrotation
						End Site
						{
							OFFSET 0.000000 6.077327 18.428101
						}
					}
				}
				JOINT RightShoulder
				{
					OFFSET -4.132698 0.575449 10.599205
					CHANNELS 3 Xrotation Yrotation Zrotation
					JOINT RightArm
					{
						OFFSET 0.000000 -0.000002 13.901794
						CHANNELS 3 Xrotation Yrotation Zrotation
						JOINT RightArmRoll
						{
							OFFSET 0.000000 -0.000002 7.017883
							CHANNELS 3 Xrotation Yrotation Zrotation
							JOINT RightForeArm
							{
								OFFSET 0.000000 -0.000003 20.440598
								CHANNELS 3 Xrotation Yrotation Zrotation
								JOINT RightForeArmRoll
								{
									OFFSET 0.000000 -0.000001 7.875153
									CHANNELS 3 Xrotation Yrotation Zrotation
									JOINT RightHand
									{
										OFFSET 0.000000 -0.000003 15.803696
										CHANNELS 3 Xrotation Yrotation Zrotation
										End Site
										{
											OFFSET 0.000000 0.000000 0.100006
										}
									}
								}
							}
						}
					}
				}
				JOINT LeftShoulder
				{
					OFFSET 4.132698 0.575449 10.599205
					CHANNELS 3 Xrotation Yrotation Zrotation
					JOINT LeftArm
					{
						OFFSET 0.000000 -0.000002 13.901794
						CHANNELS 3 Xrotation Yrotation Zrotation
						JOINT LeftArmRoll
						{
							OFFSET 0.000000 -0.000002 7.017883
							CHANNELS 3 Xrotation Yrotation Zrotation
							JOINT LeftForeArm
							{
								OFFSET 0.000000 -0.000003 20.440598
								CHANNELS 3 Xrotation Yrotation Zrotation
								JOINT LeftForeArmRoll
								{
									OFFSET 0.000000 -0.000001 7.875168
									CHANNELS 3 Xrotation Yrotation Zrotation
									JOINT LeftHand
									{
										OFFSET 0.000000 -0.000003 15.803696
										CHANNELS 3 Xrotation Yrotation Zrotation
										End Site
										{
											OFFSET 0.000000 0.000000 0.100006
										}
									}
								}
							}
						}
					}
				}
			}
		}
	}
	JOINT RightUpLeg
	{
		OFFSET -7.060478 1.086090 -1.294701
		CHANNELS 3 Xrotation Yrotation Zrotation
		JOINT RightUpLegRoll
		{
			OFFSET 0.000000 -0.000003 18.530800
			CHANNELS 3 Xrotation Yrotation Zrotation
			JOINT RightLeg
			{
				OFFSET 0.000000 0.000004 -22.947601
				CHANNELS 3 Xrotation Yrotation Zrotation
				JOINT RightLegRoll
				{
					OFFSET 0.000000 -0.000004 23.022598
					CHANNELS 3 Xrotation Yrotation Zrotation
					JOINT RightFoot
					{
						OFFSET 0.000000 -0.000004 19.162506
						CHANNELS 3 Xrotation Yrotation Zrotation
						JOINT RightToeBase
						{
							OFFSET 0.000000 -0.000002 16.018799
							CHANNELS 3 Xrotation Yrotation Zrotation
							End Site
							{
								OFFSET 0.006790 0.894204 7.757812
							}
						}
					}
				}
			}
		}
	}
	JOINT LeftUpLeg
	{
		OFFSET 7.060478 1.086090 -1.294701
		CHANNELS 3 Xrotation Yrotation Zrotation
		JOINT LeftUpLegRoll
		{
			OFFSET 0.000000 -0.000003 18.530899
			CHANNELS 3 Xrotation Yrotation Zrotation
			JOINT LeftLeg
			{
				OFFSET 0.000000 -0.000004 22.947502
				CHANNELS 3 Xrotation Yrotation Zrotation
				JOINT LeftLegRoll
				{
					OFFSET 0.000000 -0.000004 23.235504
					CHANNELS 3 Xrotation Yrotation Zrotation
					JOINT LeftFoot
					{
						OFFSET 0.000000 -0.000003 18.949600
						CHANNELS 3 Xrotation Yrotation Zrotation
						JOINT LeftToeBase
						{
							OFFSET 0.000000 -0.000003 16.018799
							CHANNELS 3 Xrotation Yrotation Zrotation
							End Site
							{
								OFFSET -0.030430 0.894205 7.757812
							}
						}
					}
				}
			}
		}
	}
}
MOTION
Frames: 13
Frame Time: 0.041667
53.824699 -11.125919 95.765587 -4.956172 0.983703 2.350501 -1.747719 -0.268887 0.219124 0.509542 -0.542533 0.432423 2.154625 -0.537321 0.438890 30.572839 5.729199 -2.780606 -5.236364 -7.125348 -1.734668 7.321517 -62.116951 7.985447 -62.910216 -141.635256 -87.614805 0.000005 0.000006 0.000002 92.034374 1.909694 -6.620915 -0.000004 0.000005 -3.004179 -5.000165 -7.999821 0.000051 -3.954505 62.814934 5.051444 -61.446369 145.278930 95.331751 0.000005 0.000003 -0.000012 87.566399 -0.980797 5.842167 -0.000002 -0.000005 3.007402 -5.000174 8.000118 0.000003 6.571384 -176.818995 -2.067308 179.999991 -0.000005 -1.246997 176.342644 -1.983958 -0.528795 0.000003 -0.000000 0.040953 69.078833 6.960152 1.942766 25.472274 -7.351726 0.022866 1.674828 171.849445 -1.113538 -0.000005 -0.000005 -1.143660 -7.923424 1.769821 0.450704 0.000003 0.000000 -0.048981 69.833097 -6.527309 -3.043864 25.456957 7.355613 -0.000001 
53.825298 -11.122320 95.766586 -4.946966 0.973842 2.358628 -1.749418 -0.266499 0.218604 0.505914 -0.537436 0.431471 2.151004 -0.532235 0.437877 30.559527 5.687969 -2.796251 -5.224512 -7.100979 -1.756296 7.247488 -62.076454 7.907430 -63.019751 -141.575068 -87.669153 0.000006 0.000008 0.000006 91.996692 1.914531 -6.609376 -0.000004 0.000007 -3.004183 -5.000165 -7.999820 0.000047 -3.904509 62.843164 4.996504 -61.618804 145.118502 95.407094 0.000004 0.000004 -0.000009 87.558579 -0.988135 5.848244 -0.000002 -0.000004 3.007401 -5.000174 8.000119 0.000001 6.558040 -176.807001 -2.058231 179.999991 -0.000004 -1.246997 176.339625 -1.988940 -0.528208 0.000004 -0.000000 0.040953 69.078102 6.960186 1.942418 25.474198 -7.351728 0.025707 1.670920 171.861425 -1.105620 -0.000004 -0.000004 -1.143159 -7.907785 1.771563 0.450321 0.000003 0.000001 -0.049253 69.830044 -6.527306 -3.042744 25.456962 7.355613 0.000001 
53.832703 -11.118817 95.760391 -4.937120 0.964529 2.367156 -1.751377 -0.264117 0.218252 0.501790 -0.532371 0.430853 2.146881 -0.527177 0.437200 30.547359 5.643500 -2.812096 -5.212062 -7.075933 -1.778406 7.171812 -62.037727 7.827208 -63.133440 -141.512053 -87.723282 0.000005 0.000010 0.000003 91.961312 1.920305 -6.598869 -0.000001 0.000007 -3.004179 -5.000169 -7.999823 0.000049 -3.854371 62.868183 4.941108 -61.789095 144.958689 95.474959 0.000005 0.000002 -0.000008 87.551045 -0.995648 5.853517 0.000002 -0.000006 3.007391 -5.000173 8.000120 0.000002 6.544460 -176.795963 -2.049635 179.999991 -0.000004 -1.246997 176.337016 -1.994920 -0.528681 0.000003 -0.000000 0.040954 69.077473 6.960225 1.941964 25.475906 -7.351732 0.028318 1.666026 171.872394 -1.097868 -0.000004 -0.000004 -1.142670 -7.892653 1.773173 0.449952 0.000003 0.000001 -0.049501 69.827011 -6.527368 -3.041432 25.456957 7.355613 -0.000001 
53.830200 -11.114822 95.778091 -4.926606 0.955924 2.376126 -1.753609 -0.261748 0.218101 0.497134 -0.527359 0.430631 2.142218 -0.522168 0.436918 30.537011 5.595194 -2.828032 -5.200120 -7.049649 -1.801031 7.093565 -62.001404 7.743625 -63.251506 -141.446388 -87.777650 0.000008 0.000010 0.000005 91.928015 1.926911 -6.588422 -0.000002 0.000008 -3.004181 -5.000166 -7.999824 0.000050 -3.804291 62.889363 4.885385 -61.957384 144.799532 95.535522 0.000003 0.000003 -0.000008 87.543511 -1.003138 5.857594 -0.000003 -0.000003 3.007391 -5.000174 8.000121 0.000003 6.530685 -176.784953 -2.041566 179.999991 -0.000005 -1.246997 176.334939 -2.000901 -0.528140 0.000004 -0.000000 0.040954 69.076852 6.960264 1.941511 25.477424 -7.351730 0.030635 1.659933 171.882366 -1.090373 -0.000005 -0.000004 -1.142209 -7.878363 1.774642 0.449610 0.000003 0.000000 -0.049720 69.824266 -6.527379 -3.040395 25.456953 7.355613 -0.000001 
53.853600 -11.130720 95.773285 -4.915385 0.948188 2.385602 -1.756129 -0.259400 0.218179 0.491916 -0.522428 0.430862 2.137007 -0.517233 0.437091 30.528944 5.542472 -2.843943 -5.189763 -7.021598 -1.824140 7.011686 -61.967950 7.655397 -63.374279 -141.378413 -87.832661 0.000007 0.000008 0.000006 91.896575 1.934285 -6.579016 -0.000002 0.000005 -3.004179 -5.000161 -7.999816 0.000050 -3.754445 62.905721 4.829474 -62.122510 144.642096 95.586653 0.000001 0.000004 -0.000010 87.535684 -1.010429 5.860164 -0.000003 -0.000006 3.007391 -5.000172 8.000125 0.000003 6.516773 -176.775923 -2.034416 179.999991 -0.000005 -1.246996 176.333355 -2.006881 -0.528578 0.000004 -0.000000 0.040954 69.076230 6.960302 1.941257 25.478738 -7.351733 0.032571 1.652402 171.891327 -1.083226 -0.000004 -0.000004 -1.141769 -7.865243 1.775925 0.449304 0.000003 0.000001 -0.049893 69.821739 -6.527362 -3.039441 25.456952 7.355614 -0.000001 
53.851799 -11.122822 95.775703 -4.903453 0.941480 2.395637 -1.758959 -0.257082 0.218518 0.486103 -0.517598 0.431609 2.131196 -0.512395 0.437780 30.523849 5.484733 -2.859715 -5.182085 -6.991253 -1.847763 6.925171 -61.937897 7.561296 -63.502796 -141.307967 -87.889679 0.000009 0.000009 0.000005 91.866659 1.942282 -6.569638 -0.000003 0.000003 -3.004181 -5.000168 -7.999829 0.000050 -3.705019 62.916438 4.773508 -62.283170 144.487256 95.626221 0.000005 0.000003 -0.000012 87.527276 -1.017320 5.860747 -0.000003 -0.000003 3.007392 -5.000177 8.000124 0.000001 6.502762 -176.767891 -2.028210 179.999991 -0.000004 -1.245999 176.332275 -2.012877 -0.529000 0.000003 -0.000000 0.040955 69.075814 6.960316 1.940886 25.479744 -7.351726 0.034056 1.643195 171.899291 -1.076521 -0.000004 -0.000005 -1.141360 -7.853641 1.777015 0.449051 0.000002 0.000001 -0.050014 69.819608 -6.527298 -3.038756 25.456953 7.355612 -0.000002 
53.834599 -11.112620 95.778191 -4.890763 0.935959 2.406295 -1.762118 -0.254801 0.219148 0.479661 -0.512895 0.432931 2.124753 -0.507676 0.439047 30.522090 5.421385 -2.875204 -5.178202 -6.958057 -1.871890 6.833003 -61.911785 7.460069 -63.636592 -141.235758 -87.948036 0.000006 0.000009 0.000002 91.838191 1.950864 -6.560308 -0.000004 0.000003 -3.004181 -5.000167 -7.999818 0.000049 -3.656264 62.920809 4.717688 -62.438912 144.335626 95.653316 0.000005 0.000004 -0.000010 87.517994 -1.023687 5.858923 0.000001 -0.000009 3.007391 -5.000176 8.000125 0.000003 6.488678 -176.761826 -2.023237 179.999991 -0.000005 -1.245999 176.331797 -2.017865 -0.528340 0.000004 -0.000000 0.040955 69.075315 6.960395 1.940532 25.480350 -7.351725 0.034991 1.632092 171.905234 -1.070377 -0.000004 -0.000004 -1.140999 -7.843870 1.777889 0.448859 0.000002 0.000000 -0.050070 69.817886 -6.527184 -3.038336 25.456955 7.355613 -0.000001 
53.845299 -11.114618 95.764191 -4.877304 0.931788 2.417628 -1.765618 -0.252564 0.220101 0.472561 -0.508344 0.434888 2.117652 -0.503101 0.440950 30.524259 5.351838 -2.890284 -5.179188 -6.921483 -1.896520 6.734172 -61.890175 7.350477 -63.776871 -141.161787 -88.009296 0.000010 0.000008 0.000003 91.810788 1.959889 -6.551973 -0.000003 0.000007 -3.004180 -5.000165 -7.999814 0.000050 -3.608340 62.917940 4.662121 -62.587824 144.188586 95.664722 0.000003 0.000003 -0.000009 87.507441 -1.029312 5.854407 0.000000 -0.000007 3.007390 -5.000175 8.000117 0.000001 6.474569 -176.757769 -2.019644 179.999991 -0.000004 -1.245999 176.331893 -2.023850 -0.528719 0.000003 -0.000000 0.040956 69.075001 6.960414 1.940254 25.480553 -7.351729 0.035325 1.618869 171.910179 -1.064859 -0.000004 -0.000004 -1.140680 -7.836270 1.778517 0.448742 0.000003 0.000001 -0.050052 69.816575 -6.527023 -3.038284 25.456955 7.355614 -0.000002 
53.839802 -11.117820 95.764389 -4.862029 0.928906 2.430332 -1.769754 -0.250264 0.221532 0.464213 -0.503727 0.437789 2.109299 -0.498449 0.443795 30.530082 5.272669 -2.905563 -5.182620 -6.880160 -1.922587 6.627105 -61.874001 7.230558 -63.923898 -141.084060 -88.074845 0.000009 0.000006 0.000003 91.785236 1.970114 -6.543708 -0.000004 0.000007 -3.004181 -5.000170 -7.999821 0.000048 -3.558367 62.905892 4.603291 -62.727563 144.045111 95.657831 0.000004 0.000004 -0.000010 87.494409 -1.033632 5.846297 0.000000 -0.000007 3.007392 -5.000178 8.000127 0.000003 6.459590 -176.754682 -2.017224 179.999991 -0.000005 -1.245999 176.332808 -2.028842 -0.529007 0.000004 -0.000000 0.040956 69.074591 6.960466 1.940090 25.480352 -7.351724 0.034990 1.602416 171.913116 -1.059685 -0.000005 -0.000005 -1.140409 -7.830587 1.778837 0.448708 0.000003 0.000001 -0.049953 69.815769 -6.526816 -3.038495 25.456957 7.355614 -0.000001 
53.842098 -11.113719 95.767891 -4.844215 0.927088 2.444847 -1.774727 -0.247808 0.223519 0.454229 -0.498858 0.441790 2.099318 -0.493533 0.447738 30.538363 5.182042 -2.921573 -5.185428 -6.833705 -1.950791 6.511870 -61.863564 7.100351 -64.077256 -141.000909 -88.145060 0.000006 0.000008 0.000004 91.762171 1.981937 -6.537481 -0.000006 0.000004 -3.004171 -5.000165 -7.999816 0.000048 -3.504035 62.884425 4.538487 -62.856708 143.903876 95.631541 0.000001 0.000002 -0.000008 87.478085 -1.036552 5.834482 -0.000001 -0.000007 3.007392 -5.000177 8.000123 0.000002 6.442995 -176.753589 -2.015841 179.999991 -0.000005 -1.245999 176.334721 -2.035826 -0.528389 0.000003 -0.000000 0.040957 69.074393 6.960490 1.939907 25.479746 -7.351726 0.034056 1.582222 171.914045 -1.054526 -0.000004 -0.000004 -1.140169 -7.826246 1.778856 0.448753 0.000003 0.000001 -0.049779 69.815393 -6.526628 -3.038683 25.456957 7.355614 -0.000001 
53.845501 -11.112421 95.771690 -4.824292 0.926243 2.460842 -1.780396 -0.245237 0.225977 0.442865 -0.493807 0.446724 2.087956 -0.488423 0.452610 30.549032 5.081748 -2.938150 -5.187795 -6.783070 -1.980750 6.389738 -61.857868 6.961437 -64.236474 -140.913018 -88.218628 0.000009 0.000010 0.000003 91.741530 1.995298 -6.532343 -0.000003 0.000007 -3.004169 -5.000165 -7.999820 0.000047 -3.446390 62.854611 4.469061 -62.976243 143.764677 95.587220 0.000001 0.000001 -0.000009 87.459357 -1.038297 5.819670 0.000002 -0.000007 3.007381 -5.000171 8.000124 0.000001 6.425133 -176.754463 -2.015415 179.999991 -0.000004 -1.246000 176.337507 -2.041830 -0.528673 0.000004 -0.000000 0.040957 69.074290 6.960519 1.939619 25.478738 -7.351734 0.032572 1.558859 171.913963 -1.049404 -0.000005 -0.000005 -1.139970 -7.823104 1.778612 0.448864 0.000003 0.000001 -0.049542 69.815346 -6.526456 -3.038955 25.456957 7.355613 -0.000001 
53.850601 -11.111719 95.755875 -4.802696 0.926284 2.478013 -1.786637 -0.242587 0.228824 0.430380 -0.488644 0.452424 2.075464 -0.483191 0.458249 30.561815 4.973600 -2.955128 -5.189876 -6.729186 -2.012089 6.261970 -61.856133 6.815421 -64.400413 -140.821521 -88.293691 0.000007 0.000007 0.000004 91.723348 2.010115 -6.528234 -0.000003 0.000006 -3.004172 -5.000162 -7.999820 0.000050 -3.386572 62.818035 4.396458 -63.087910 143.627076 95.527586 -0.000000 0.000002 -0.000009 87.439023 -1.039272 5.802471 -0.000001 -0.000007 3.007382 -5.000180 8.000118 0.000000 6.406335 -176.755337 -2.015650 179.999991 -0.000005 -1.246000 176.341018 -2.048818 -0.528994 0.000003 -0.000000 0.040957 69.074202 6.960549 1.939531 25.477424 -7.351730 0.030635 1.532955 171.912856 -1.044377 -0.000005 -0.000004 -1.139800 -7.821010 1.778136 0.449029 0.000002 0.000001 -0.049252 69.815612 -6.526298 -3.039311 25.456957 7.355612 -0.000001 
53.852001 -11.116223 95.760803 -4.779867 0.927116 2.496031 -1.793314 -0.239900 0.231973 0.417033 -0.483440 0.458726 2.062121 -0.477911 0.464487 30.576605 4.859384 -2.972345 -5.191868 -6.672979 -2.044413 6.129875 -61.857472 6.663909 -64.570218 -140.726390 -88.371364 0.000007 0.000008 0.000006 91.707400 2.026041 -6.525199 -0.000004 0.000002 -3.004171 -5.000164 -7.999824 0.000049 -3.325669 62.775934 4.322049 -63.193231 143.490322 95.455227 0.000001 0.000004 -0.000008 87.417672 -1.039867 5.783362 -0.000001 -0.000005 3.007383 -5.000178 8.000125 0.000002 6.386898 -176.758206 -2.016684 179.999991 -0.000004 -1.246000 176.345198 -2.056816 -0.529355 0.000003 0.000000 0.040958 69.074209 6.960584 1.939336 25.475907 -7.351732 0.028319 1.505106 171.910766 -1.039494 -0.000005 -0.000004 -1.139660 -7.819848 1.777477 0.449235 0.000002 0.000000 -0.048918 69.816110 -6.526184 -3.039563 25.456957 7.355614 -0.000001 
